<?xml version="1.0" encoding="utf-8"?>
<!-- Svg Vector Icons : http://www.onlinewebfonts.com/icon -->
<!DOCTYPE svg PUBLIC "-//W3C//DTD SVG 1.1//EN" "http://www.w3.org/Graphics/SVG/1.1/DTD/svg11.dtd">
<svg version="1.1" xmlns="http://www.w3.org/2000/svg" xmlns:xlink="http://www.w3.org/1999/xlink" x="0px" y="0px" viewBox="0 0 1000 1000" enable-background="new 0 0 1000 1000" xml:space="preserve">
<metadata> Svg Vector Icons : http://www.onlinewebfonts.com/icon </metadata>
<g><path d="M10,126.7c0,64.4,52.2,116.7,116.7,116.7c64.4,0,116.7-52.2,116.7-116.7C243.3,62.2,191.1,10,126.7,10C62.2,10,10,62.2,10,126.7z"/><path d="M10,500c0,64.4,52.2,116.7,116.7,116.7c64.4,0,116.7-52.2,116.7-116.7c0-64.4-52.2-116.7-116.7-116.7C62.2,383.3,10,435.6,10,500z"/><path d="M383.3,126.7c0,64.4,52.2,116.7,116.7,116.7c64.4,0,116.7-52.2,116.7-116.7C616.7,62.2,564.4,10,500,10C435.6,10,383.3,62.2,383.3,126.7L383.3,126.7z"/><path d="M383.3,500c0,64.4,52.2,116.7,116.7,116.7c64.4,0,116.7-52.2,116.7-116.7c0-64.4-52.2-116.7-116.7-116.7C435.6,383.3,383.3,435.6,383.3,500L383.3,500z"/><path d="M756.7,126.7c0,64.4,52.2,116.7,116.7,116.7c64.4,0,116.7-52.2,116.7-116.7C990,62.2,937.8,10,873.3,10C808.9,10,756.7,62.2,756.7,126.7z"/><path d="M756.7,500c0,64.4,52.2,116.7,116.7,116.7c64.4,0,116.7-52.2,116.7-116.7c0-64.4-52.2-116.7-116.7-116.7C808.9,383.3,756.7,435.6,756.7,500z"/><path d="M10,873.3C10,937.8,62.2,990,126.7,990c64.4,0,116.7-52.2,116.7-116.7l0,0c0-64.4-52.2-116.7-116.7-116.7C62.2,756.7,10,808.9,10,873.3z"/><path d="M383.3,873.3c0,64.4,52.2,116.7,116.7,116.7c64.4,0,116.7-52.2,116.7-116.7c0-64.4-52.2-116.7-116.7-116.7C435.6,756.7,383.3,808.9,383.3,873.3L383.3,873.3z"/><path d="M756.7,873.3c0,64.4,52.2,116.7,116.7,116.7c64.4,0,116.7-52.2,116.7-116.7c0-64.4-52.2-116.7-116.7-116.7C808.9,756.7,756.7,808.9,756.7,873.3z"/></g>
</svg>